<?xml version="1.0" encoding="UTF-8" standalone="no"?>
<!-- Generator: Adobe Illustrator 16.0.0, SVG Export Plug-In . SVG Version: 6.00 Build 0)  -->

<svg
   xmlns:dc="http://purl.org/dc/elements/1.1/"
   xmlns:cc="http://creativecommons.org/ns#"
   xmlns:rdf="http://www.w3.org/1999/02/22-rdf-syntax-ns#"
   xmlns:svg="http://www.w3.org/2000/svg"
   xmlns="http://www.w3.org/2000/svg"
   xmlns:xlink="http://www.w3.org/1999/xlink"
   xmlns:sodipodi="http://sodipodi.sourceforge.net/DTD/sodipodi-0.dtd"
   xmlns:inkscape="http://www.inkscape.org/namespaces/inkscape"
   version="1.1"
   id="Layer_1"
   x="0px"
   y="0px"
   width="532.37909"
   height="114.78113"
   viewBox="0 0 532.37908 114.78113"
   enable-background="new 0 0 841.89 595.281"
   xml:space="preserve"
   sodipodi:docname="logo-netology.svg"
   inkscape:version="0.92.0 r15299"><metadata
     id="metadata3789"><rdf:RDF><cc:Work
         rdf:about=""><dc:format>image/svg+xml</dc:format><dc:type
           rdf:resource="http://purl.org/dc/dcmitype/StillImage" /><dc:title></dc:title></cc:Work></rdf:RDF></metadata><defs
     id="defs3787"><defs
       id="defs3681"><rect
         height="595.28101"
         width="841.89001"
         id="SVGID_1_"
         x="0"
         y="0" /></defs><clipPath
       id="SVGID_2_"><use
         id="use3683"
         overflow="visible"
         xlink:href="#SVGID_1_"
         style="overflow:visible"
         x="0"
         y="0"
         width="100%"
         height="100%" /></clipPath></defs><sodipodi:namedview
     pagecolor="#ffffff"
     bordercolor="#666666"
     borderopacity="1"
     objecttolerance="10"
     gridtolerance="10"
     guidetolerance="10"
     inkscape:pageopacity="0"
     inkscape:pageshadow="2"
     inkscape:window-width="1304"
     inkscape:window-height="745"
     id="namedview3785"
     showgrid="false"
     inkscape:zoom="0.97097"
     inkscape:cx="293.40908"
     inkscape:cy="47.013565"
     inkscape:window-x="1912"
     inkscape:window-y="-8"
     inkscape:window-maximized="1"
     inkscape:current-layer="Layer_1" /><g
     id="g4741"
     transform="translate(-127.53593,-229.87294)"><path
       clip-path="url(#SVGID_2_)"
       d="m 171.884,242.879 c 0.017,-7.201 5.872,-13.027 13.072,-13.006 7.204,0.018 13.029,5.875 13.013,13.078 -0.011,5.799 -3.813,10.705 -9.053,12.385 v 31.715 c 0,0.115 -0.181,0.215 -0.398,0.215 h -7.182 c -0.223,0 -0.4,-0.1 -0.4,-0.215 v -31.715 c -5.262,-1.691 -9.067,-6.635 -9.052,-12.457"
       id="path3686"
       inkscape:connector-curvature="0"
       style="clip-rule:evenodd;fill:#c859a1;fill-rule:evenodd" /><path
       clip-path="url(#SVGID_2_)"
       d="m 144.318,265.1 c -5.078,-5.102 -5.057,-13.365 0.047,-18.437 5.105,-5.083 13.367,-5.061 18.451,0.046 4.09,4.108 4.872,10.262 2.354,15.161 l 22.429,22.425 c 0.079,0.08 0.022,0.274 -0.135,0.43 l -5.08,5.078 c -0.154,0.152 -0.347,0.219 -0.429,0.135 l -22.429,-22.432 c -4.918,2.53 -11.097,1.724 -15.208,-2.406"
       id="path3688"
       inkscape:connector-curvature="0"
       style="clip-rule:evenodd;fill:#5261ac;fill-rule:evenodd" /><path
       clip-path="url(#SVGID_2_)"
       d="m 140.542,300.309 c -7.198,-0.02 -13.029,-5.877 -13.006,-13.074 0.017,-7.203 5.872,-13.031 13.076,-13.012 5.8,0.01 10.708,3.814 12.389,9.053 h 31.713 c 0.116,0 0.212,0.179 0.212,0.396 v 7.186 c 0,0.219 -0.096,0.396 -0.212,0.396 h -31.716 c -1.689,5.266 -6.63,9.066 -12.456,9.055"
       id="path3690"
       inkscape:connector-curvature="0"
       style="clip-rule:evenodd;fill:#0079c1;fill-rule:evenodd" /><path
       clip-path="url(#SVGID_2_)"
       d="m 162.768,327.875 c -5.105,5.078 -13.367,5.057 -18.443,-0.049 -5.082,-5.109 -5.063,-13.369 0.047,-18.449 4.107,-4.094 10.264,-4.873 15.159,-2.355 l 22.428,-22.429 c 0.082,-0.078 0.272,-0.018 0.428,0.136 l 5.078,5.075 c 0.157,0.16 0.215,0.353 0.135,0.429 l -22.43,22.432 c 2.527,4.913 1.724,11.099 -2.402,15.21"
       id="path3692"
       inkscape:connector-curvature="0"
       style="clip-rule:evenodd;fill:#00aeef;fill-rule:evenodd;stroke:#ffffff" /><path
       clip-path="url(#SVGID_2_)"
       d="m 197.97,331.646 c -0.018,7.203 -5.874,13.031 -13.073,13.008 -7.203,-0.02 -13.028,-5.873 -13.013,-13.078 0.011,-5.793 3.814,-10.705 9.056,-12.385 v -31.717 c 0,-0.117 0.178,-0.209 0.398,-0.209 h 7.182 c 0.219,0 0.398,0.092 0.398,0.209 v 31.717 c 5.26,1.696 9.067,6.631 9.052,12.455"
       id="path3694"
       inkscape:connector-curvature="0"
       style="clip-rule:evenodd;fill:#6cb33f;fill-rule:evenodd" /><path
       clip-path="url(#SVGID_2_)"
       d="m 225.533,309.424 c 5.079,5.107 5.057,13.369 -0.047,18.441 -5.103,5.08 -13.365,5.061 -18.447,-0.046 -4.092,-4.108 -4.875,-10.265 -2.356,-15.161 l -22.427,-22.425 c -0.082,-0.084 -0.022,-0.278 0.131,-0.43 l 5.08,-5.078 c 0.156,-0.156 0.349,-0.215 0.431,-0.135 l 22.426,22.432 c 4.92,-2.53 11.1,-1.723 15.209,2.402"
       id="path3696"
       inkscape:connector-curvature="0"
       style="clip-rule:evenodd;fill:#c1d82f;fill-rule:evenodd" /><path
       clip-path="url(#SVGID_2_)"
       d="m 229.311,274.221 c 7.199,0.021 13.03,5.877 13.007,13.074 -0.019,7.203 -5.873,13.028 -13.079,13.014 -5.797,-0.016 -10.701,-3.815 -12.387,-9.059 h -31.714 c -0.114,0 -0.21,-0.174 -0.21,-0.398 v -7.18 c 0,-0.217 0.096,-0.4 0.21,-0.4 h 31.717 c 1.689,-5.26 6.63,-9.065 12.456,-9.051"
       id="path3698"
       inkscape:connector-curvature="0"
       style="clip-rule:evenodd;fill:#f58020;fill-rule:evenodd" /><path
       clip-path="url(#SVGID_2_)"
       d="m 207.086,246.66 c 5.105,-5.086 13.367,-5.061 18.445,0.041 5.078,5.105 5.059,13.365 -0.049,18.449 -4.107,4.096 -10.266,4.875 -15.16,2.356 l -22.427,22.431 c -0.08,0.08 -0.274,0.018 -0.43,-0.136 l -5.078,-5.077 c -0.156,-0.156 -0.213,-0.349 -0.133,-0.429 l 22.43,-22.43 c -2.529,-4.92 -1.725,-11.101 2.402,-15.205"
       id="path3700"
       inkscape:connector-curvature="0"
       style="clip-rule:evenodd;fill:#f15623;fill-rule:evenodd" /><path
       clip-path="url(#SVGID_2_)"
       d="m 171.581,287.234 c 0.018,-7.775 6.342,-14.07 14.116,-14.045 7.779,0.018 14.07,6.338 14.053,14.121 -0.019,7.774 -6.343,14.064 -14.12,14.045 -7.779,-0.023 -14.067,-6.341 -14.049,-14.121"
       id="path3702"
       inkscape:connector-curvature="0"
       style="clip-rule:evenodd;fill:#00aeef;fill-rule:evenodd;stroke:#ffffff" /><polygon
       clip-path="url(#SVGID_2_)"
       points="377.335,274.746 377.335,278.353 370.987,278.353 370.987,268.432 409.007,268.432 409.007,278.353 402.687,278.353 402.687,274.746 394.087,274.746 394.087,300.863 398.499,300.863 398.499,306.498 381.369,306.498 381.369,300.863 385.787,300.863 385.787,274.746 "
       id="polygon3704"
       style="fill:#42576a;fill-opacity:1" /><polygon
       clip-path="url(#SVGID_2_)"
       points="543.473,274.666 543.473,268.432 573.001,268.432 573.001,278.27 566.709,278.27 566.709,274.666 555.399,274.666 555.399,300.863 558.988,300.863 558.988,306.498 543.473,306.498 543.473,300.863 547.101,300.863 547.101,274.666 "
       id="polygon3706"
       style="fill:#42576a;fill-opacity:1" /><path
       clip-path="url(#SVGID_2_)"
       d="m 647.989,306.498 v -13.629 h -7.919 l -5.303,10.432 -2.511,3.197 h -7.861 v -5.639 h 3.482 l 5.034,-9.516 c -5.71,-1.99 -8.117,-5.734 -8.117,-10.836 0,-7.27 4.92,-12.076 15.96,-12.076 h 19.161 v 6.234 h -3.63 v 26.197 h 3.63 v 5.635 h -11.926 z m -7.541,-19.033 h 7.541 v -12.799 h -6.398 c -6.091,0 -8.85,2.27 -8.85,5.99 0,4.569 2.988,6.809 7.707,6.809"
       id="path3708"
       inkscape:connector-curvature="0"
       style="fill:#42576a;fill-opacity:1" /><path
       clip-path="url(#SVGID_2_)"
       d="m 518.591,267.096 c 11.497,0 20.785,8.451 20.785,20.102 0,11.724 -9.288,20.252 -20.785,20.252 -11.496,0 -20.786,-8.528 -20.786,-20.252 0,-11.651 9.29,-20.102 20.786,-20.102 m 0,33.959 c 7.232,0 13.249,-5.787 13.249,-13.857 0,-7.996 -6.017,-13.704 -13.249,-13.704 -7.311,0 -13.251,5.708 -13.251,13.704 0,8.07 5.94,13.857 13.251,13.857"
       id="path3710"
       inkscape:connector-curvature="0"
       style="fill:#42576a;fill-opacity:1" /><path
       clip-path="url(#SVGID_2_)"
       d="m 431.876,267.096 c 11.498,0 20.785,8.451 20.785,20.102 0,11.724 -9.287,20.252 -20.785,20.252 -11.494,0 -20.785,-8.528 -20.785,-20.252 0,-11.651 9.291,-20.102 20.785,-20.102 m 0,33.959 c 7.234,0 13.251,-5.787 13.251,-13.857 0,-7.996 -6.017,-13.704 -13.251,-13.704 -7.311,0 -13.247,5.708 -13.247,13.704 0,8.07 5.936,13.857 13.247,13.857"
       id="path3712"
       inkscape:connector-curvature="0"
       style="fill:#42576a;fill-opacity:1" /><path
       clip-path="url(#SVGID_2_)"
       d="m 490.368,300.863 v -32.432 h -29.374 v 6.235 h 3.488 c -0.797,18.515 -1.64,25.421 -10.518,25.421 v 6.639 c 0.383,0.029 1.551,0 1.913,0 11.238,0 15.133,-8.449 15.834,-31.98 h 10.282 v 26.117 h -3.588 v 5.635 h 15.55 v -5.635 z"
       id="path3714"
       inkscape:connector-curvature="0"
       style="fill:#42576a;fill-opacity:1" /><path
       clip-path="url(#SVGID_2_)"
       d="m 358.575,296.082 c -2.446,3.096 -6.154,4.973 -10.265,4.973 -6.414,0 -11.77,-4.457 -12.985,-11.001 h 33.255 c 1.587,-11.7 -6.471,-22.957 -20.27,-22.957 -11.494,0 -20.553,8.451 -20.553,20.101 0,11.725 9.059,20.252 20.553,20.252 8.311,0 15.446,-4.469 18.774,-11.367 h -8.509 z M 348.31,273.494 c 6.232,0 11.552,4.242 12.908,10.529 h -25.816 c 1.342,-6.287 6.61,-10.529 12.908,-10.529"
       id="path3716"
       inkscape:connector-curvature="0"
       style="fill:#42576a;fill-opacity:1" /><polygon
       clip-path="url(#SVGID_2_)"
       points="310.032,274.082 310.032,283.958 292.29,283.958 292.29,268.432 280.385,268.432 280.385,268.436 280.385,273.188 280.385,274.082 283.993,274.082 283.993,300.863 280.385,300.863 280.385,306.498 295.946,306.498 295.946,300.863 292.29,300.863 292.29,289.901 310.032,289.901 310.032,306.498 321.993,306.498 321.993,300.863 321.993,300.854 318.332,300.854 318.332,274.082 321.993,274.082 321.993,273.137 321.993,268.436 321.993,268.432 306.528,268.432 306.528,268.436 306.464,268.436 306.464,274.082 "
       id="polygon3718"
       style="fill:#42576a;fill-opacity:1" /><polygon
       clip-path="url(#SVGID_2_)"
       points="588.097,274.082 591.717,274.082 591.717,268.436 576.187,268.432 576.187,268.436 576.187,274.082 579.799,274.082 579.799,306.498 585.891,306.498 585.967,306.344 606.902,279.014 606.902,300.836 603.404,300.836 603.404,306.48 618.935,306.498 618.935,306.48 618.935,300.863 618.935,300.836 615.278,300.836 615.278,268.432 607.589,268.432 588.097,294.088 "
       id="polygon3720"
       style="fill:#42576a;fill-opacity:1" /></g></svg>